<?xml version="1.0" encoding="UTF-8" standalone="no"?>
<!-- Created with Inkscape (http://www.inkscape.org/) -->

<svg
   xmlns:dc="http://purl.org/dc/elements/1.1/"
   xmlns:cc="http://creativecommons.org/ns#"
   xmlns:rdf="http://www.w3.org/1999/02/22-rdf-syntax-ns#"
   xmlns:svg="http://www.w3.org/2000/svg"
   xmlns="http://www.w3.org/2000/svg"
   xmlns:sodipodi="http://sodipodi.sourceforge.net/DTD/sodipodi-0.dtd"
   xmlns:inkscape="http://www.inkscape.org/namespaces/inkscape"
   id="svg2"
   version="1.1"
   inkscape:version="0.48.2 r9819"
   width="766.25"
   height="768.75"
   xml:space="preserve"
   sodipodi:docname="ss_58_UpArrow.eps"><metadata
     id="metadata8"><rdf:RDF><cc:Work
         rdf:about=""><dc:format>image/svg+xml</dc:format><dc:type
           rdf:resource="http://purl.org/dc/dcmitype/StillImage" /><dc:title></dc:title></cc:Work></rdf:RDF></metadata><defs
     id="defs6" /><sodipodi:namedview
     pagecolor="#ffffff"
     bordercolor="#666666"
     borderopacity="1"
     objecttolerance="10"
     gridtolerance="10"
     guidetolerance="10"
     inkscape:pageopacity="0"
     inkscape:pageshadow="2"
     inkscape:window-width="640"
     inkscape:window-height="480"
     id="namedview4"
     showgrid="false"
     inkscape:zoom="0.30699187"
     inkscape:cx="383.125"
     inkscape:cy="384.375"
     inkscape:window-x="0"
     inkscape:window-y="0"
     inkscape:window-maximized="0"
     inkscape:current-layer="g10" /><g
     id="g10"
     inkscape:groupmode="layer"
     inkscape:label="ink_ext_XXXXXX"
     transform="matrix(1.25,0,0,-1.25,0,768.75)"><g
       id="g12"
       transform="scale(0.1,0.1)"><path
         d="m 828.25,5961.25 c -413.102,-0.03 -645.461,-213.74 -645,-650 l 0,-4502 c -0.461,-408.039 208.449,-621.891 621,-622 l 4521,0 c 412.73,0.109 621.96,203.312 622,622 l 0,4502 c -0.04,425.61 -209.27,649.97 -635,650 0,0 -4485.18,1.39 -4484,0"
         style="fill:#000000;fill-opacity:1;fill-rule:nonzero;stroke:none"
         id="path14" /><path
         d="m 828.25,5961.25 c -413.102,-0.03 -645.461,-213.74 -645,-650 l 0,-4502 c -0.461,-408.039 208.449,-621.891 621,-622 l 4521,0 c 412.73,0.109 621.96,203.312 622,622 l 0,4502 c -0.04,425.61 -209.27,649.97 -635,650 0,0 -4485.18,1.39 -4484,0 z"
         style="fill:none;stroke:#ffffff;stroke-opacity:1;stroke-width:34.08;stroke-linecap:butt;stroke-linejoin:miter;stroke-miterlimit:10;stroke-dasharray:none"
         id="path16" /><path
         d="m 1295.25,3555.25 1802,1802 1802,-1802 0,-1189 -1370,1371 0,-2693 -872,0 0,2683 -1364,-1363 2,1191"
         style="fill:#ffffff;fill-opacity:1;fill-rule:nonzero;stroke:none"
         id="path18" /></g></g></svg>